# xmcd
#
# Track frame offsets: 
#        150
#        20315
#        42277
#        74387
#        92930
#        109917
#        138526
#        174128
#        190819
#        213578
#        236443
#
# Disc length: 3677 seconds
#
# Revision: 0
# Processed by: cddbd v1.4PL0 Copyright (c) Steve Scherf et al.
# Submitted via: ExactAudioCopy v0.90b4
#
DISCID=960e5b0b
DTITLE=Cal Batchelor - Now Playing
DYEAR=1997
DGENRE=Blues
TTITLE0=Atlantic City
TTITLE1=Blues on the Radio
TTITLE2=Questions
TTITLE3=If I Can't Have You
TTITLE4=I Stand by The River
TTITLE5=Give Me a Sign
TTITLE6=Days Like This
TTITLE7=Can't be Trusted
TTITLE8=Care For You
TTITLE9=Snookie
TTITLE10=Black Crow
EXTD=
EXTT0=
EXTT1=
EXTT2=
EXTT3=
EXTT4=
EXTT5=
EXTT6=
EXTT7=
EXTT8=
EXTT9=
EXTT10=
PLAYORDER=
